<svg width="50" height="51" viewBox="0 0 50 51" fill="none" xmlns="http://www.w3.org/2000/svg">
<path d="M25 0.229614C21.717 0.229614 18.466 0.876328 15.4329 2.13261C12.3997 3.38904 9.64386 5.23047 7.32229 7.5519C5.00086 9.87347 3.15943 12.6293 1.903 15.6625C0.646714 18.6956 0 21.9466 0 25.2296C0 28.5126 0.646714 31.7636 1.903 34.7968C3.15943 37.8299 5.00086 40.5858 7.32229 42.9073C9.64386 45.2288 12.3997 47.0702 15.4329 48.3266C18.466 49.5829 21.717 50.2296 25 50.2296V37.7296C23.3584 37.7296 21.733 37.4063 20.2164 36.778C18.6999 36.1499 17.3219 35.2292 16.1611 34.0685C15.0004 32.9078 14.0797 31.5298 13.4516 30.0132C12.8233 28.4966 12.5 26.8712 12.5 25.2296C12.5 23.588 12.8233 21.9626 13.4516 20.446C14.0797 18.9295 15.0004 17.5515 16.1611 16.3908C17.3219 15.23 18.6999 14.3093 20.2164 13.6812C21.733 13.0529 23.3584 12.7296 25 12.7296V0.229614Z" fill="#FF621F"/>
<path d="M25.0001 33.5629C29.6025 33.5629 33.3334 29.8321 33.3334 25.2296C33.3334 20.6272 29.6025 16.8964 25.0001 16.8964C20.3977 16.8964 16.6668 20.6272 16.6668 25.2296C16.6668 29.8321 20.3977 33.5629 25.0001 33.5629Z" fill="#07AC9E"/>
<path d="M0 25.2296C0 28.5126 0.646714 31.7636 1.903 34.7968C3.15943 37.8299 5.00086 40.5858 7.32229 42.9073C9.64386 45.2288 12.3997 47.0702 15.4329 48.3266C18.466 49.5829 21.717 50.2296 25 50.2296C28.283 50.2296 31.534 49.5829 34.5671 48.3266C37.6003 47.0702 40.3561 45.2288 42.6777 42.9073C44.9991 40.5858 46.8406 37.8299 48.097 34.7968C49.3533 31.7636 50 28.5126 50 25.2296H37.5C37.5 26.8712 37.1767 28.4966 36.5484 30.0132C35.9203 31.5298 34.9996 32.9078 33.8389 34.0685C32.6781 35.2292 31.3001 36.1499 29.7836 36.778C28.267 37.4063 26.6416 37.7296 25 37.7296C23.3584 37.7296 21.733 37.4063 20.2164 36.778C18.6999 36.1499 17.3219 35.2292 16.1611 34.0685C15.0004 32.9078 14.0797 31.5298 13.4516 30.0132C12.8233 28.4966 12.5 26.8712 12.5 25.2296H0Z" fill="#07AC9E"/>
<path d="M33.3335 25.2297C33.3335 23.0195 32.4555 20.9 30.8928 19.3371C29.33 17.7742 27.2104 16.8962 25.0002 16.8962C22.7901 16.8962 20.6705 17.7742 19.1077 19.3371C17.5448 20.9 16.6668 23.0195 16.6668 25.2297H25.0002H33.3335Z" fill="#FF621F"/>
</svg>
