<svg width="171" height="51" viewBox="0 0 171 51" fill="none" xmlns="http://www.w3.org/2000/svg">
<path d="M25 0.229614C21.717 0.229614 18.466 0.876328 15.4329 2.13261C12.3997 3.38904 9.64386 5.23047 7.32229 7.5519C5.00086 9.87347 3.15943 12.6293 1.903 15.6625C0.646714 18.6956 0 21.9466 0 25.2296C0 28.5126 0.646714 31.7636 1.903 34.7968C3.15943 37.8299 5.00086 40.5858 7.32229 42.9073C9.64386 45.2288 12.3997 47.0702 15.4329 48.3266C18.466 49.5829 21.717 50.2296 25 50.2296V37.7296C23.3584 37.7296 21.733 37.4063 20.2164 36.778C18.6999 36.1499 17.3219 35.2292 16.1611 34.0685C15.0004 32.9078 14.0797 31.5298 13.4516 30.0132C12.8233 28.4966 12.5 26.8712 12.5 25.2296C12.5 23.588 12.8233 21.9626 13.4516 20.446C14.0797 18.9295 15.0004 17.5515 16.1611 16.3908C17.3219 15.23 18.6999 14.3093 20.2164 13.6812C21.733 13.0529 23.3584 12.7296 25 12.7296V0.229614Z" fill="#FF621F"/>
<path d="M25.0001 33.5629C29.6025 33.5629 33.3334 29.8321 33.3334 25.2296C33.3334 20.6272 29.6025 16.8964 25.0001 16.8964C20.3977 16.8964 16.6668 20.6272 16.6668 25.2296C16.6668 29.8321 20.3977 33.5629 25.0001 33.5629Z" fill="#07AC9E"/>
<path d="M0 25.2296C0 28.5126 0.646714 31.7636 1.903 34.7968C3.15943 37.8299 5.00086 40.5858 7.32229 42.9073C9.64386 45.2288 12.3997 47.0702 15.4329 48.3266C18.466 49.5829 21.717 50.2296 25 50.2296C28.283 50.2296 31.534 49.5829 34.5671 48.3266C37.6003 47.0702 40.3561 45.2288 42.6777 42.9073C44.9991 40.5858 46.8406 37.8299 48.097 34.7968C49.3533 31.7636 50 28.5126 50 25.2296H37.5C37.5 26.8712 37.1767 28.4966 36.5484 30.0132C35.9203 31.5298 34.9996 32.9078 33.8389 34.0685C32.6781 35.2292 31.3001 36.1499 29.7836 36.778C28.267 37.4063 26.6416 37.7296 25 37.7296C23.3584 37.7296 21.733 37.4063 20.2164 36.778C18.6999 36.1499 17.3219 35.2292 16.1611 34.0685C15.0004 32.9078 14.0797 31.5298 13.4516 30.0132C12.8233 28.4966 12.5 26.8712 12.5 25.2296H0Z" fill="#07AC9E"/>
<path d="M33.3335 25.2297C33.3335 23.0195 32.4555 20.9 30.8928 19.3371C29.33 17.7742 27.2104 16.8962 25.0002 16.8962C22.7901 16.8962 20.6705 17.7742 19.1077 19.3371C17.5448 20.9 16.6668 23.0195 16.6668 25.2297H25.0002H33.3335Z" fill="#FF621F"/>
<path d="M61.5852 15.4484V12.0478H81.848V15.4484H73.679V38.2296H69.7415V15.4484H61.5852ZM83.9798 38.2296V18.5933H87.6744V21.7126H87.8789C88.2369 20.6557 88.8675 19.8248 89.771 19.2197C90.6829 18.606 91.7141 18.2992 92.8647 18.2992C93.1033 18.2992 93.3846 18.3077 93.7085 18.3248C94.0408 18.3418 94.3008 18.3631 94.4883 18.3887V22.045C94.3349 22.0023 94.0621 21.9555 93.6701 21.9043C93.2781 21.8447 92.886 21.8148 92.494 21.8148C91.5906 21.8148 90.7852 22.0066 90.0778 22.3901C89.3789 22.7651 88.8249 23.2893 88.4158 23.9626C88.0067 24.6273 87.8022 25.3859 87.8022 26.2381V38.2296H83.9798ZM103.335 38.6643C102.091 38.6643 100.966 38.4342 99.9599 37.9739C98.9542 37.5052 98.1573 36.8276 97.5692 35.9413C96.9897 35.0549 96.6999 33.9683 96.6999 32.6813C96.6999 31.5734 96.913 30.6614 97.3391 29.9455C97.7653 29.2296 98.3406 28.6629 99.065 28.2452C99.7894 27.8276 100.599 27.5123 101.494 27.2992C102.389 27.0861 103.301 26.9242 104.23 26.8134C105.406 26.6771 106.36 26.5663 107.093 26.481C107.826 26.3873 108.359 26.2381 108.691 26.0336C109.024 25.829 109.19 25.4967 109.19 25.0364V24.9469C109.19 23.8305 108.875 22.9654 108.244 22.3518C107.622 21.7381 106.693 21.4313 105.457 21.4313C104.17 21.4313 103.156 21.7168 102.414 22.2879C101.681 22.8504 101.174 23.4768 100.893 24.1671L97.3008 23.3489C97.7269 22.1558 98.3491 21.1927 99.1673 20.4597C99.994 19.7182 100.944 19.1813 102.018 18.8489C103.092 18.508 104.221 18.3376 105.406 18.3376C106.19 18.3376 107.021 18.4313 107.899 18.6188C108.785 18.7978 109.612 19.1302 110.379 19.616C111.154 20.1018 111.789 20.7964 112.284 21.6998C112.778 22.5947 113.025 23.758 113.025 25.1898V38.2296H109.292V35.545H109.139C108.892 36.0393 108.521 36.5251 108.027 37.0023C107.532 37.4796 106.897 37.8759 106.122 38.1913C105.346 38.5066 104.417 38.6643 103.335 38.6643ZM104.166 35.5961C105.223 35.5961 106.126 35.3873 106.876 34.9697C107.635 34.5521 108.21 34.0066 108.602 33.3333C109.002 32.6515 109.203 31.9228 109.203 31.1472V28.616C109.066 28.7523 108.802 28.8802 108.41 28.9995C108.027 29.1103 107.588 29.2083 107.093 29.2935C106.599 29.3702 106.118 29.4427 105.649 29.5109C105.18 29.5705 104.788 29.6217 104.473 29.6643C103.731 29.758 103.054 29.9157 102.44 30.1373C101.835 30.3589 101.349 30.6785 100.983 31.0961C100.625 31.5052 100.446 32.0506 100.446 32.7325C100.446 33.6785 100.795 34.3944 101.494 34.8802C102.193 35.3575 103.083 35.5961 104.166 35.5961Z" fill="#FF621F"/>
<path d="M134.212 18.5933L127.091 38.2296H123L115.866 18.5933H119.97L124.943 33.704H125.148L130.108 18.5933H134.212ZM145.407 38.6259C143.566 38.6259 141.96 38.204 140.588 37.3603C139.216 36.5165 138.15 35.3361 137.392 33.8191C136.633 32.3021 136.254 30.5293 136.254 28.5009C136.254 26.464 136.633 24.6827 137.392 23.1572C138.15 21.6316 139.216 20.4469 140.588 19.6032C141.96 18.7594 143.566 18.3376 145.407 18.3376C147.248 18.3376 148.855 18.7594 150.227 19.6032C151.599 20.4469 152.664 21.6316 153.423 23.1572C154.181 24.6827 154.561 26.464 154.561 28.5009C154.561 30.5293 154.181 32.3021 153.423 33.8191C152.664 35.3361 151.599 36.5165 150.227 37.3603C148.855 38.204 147.248 38.6259 145.407 38.6259ZM145.42 35.4171C146.613 35.4171 147.602 35.1018 148.386 34.4711C149.17 33.8404 149.75 33.0009 150.125 31.9526C150.508 30.9043 150.7 29.7495 150.7 28.4881C150.7 27.2353 150.508 26.0847 150.125 25.0364C149.75 23.9796 149.17 23.1316 148.386 22.4924C147.602 21.8532 146.613 21.5336 145.42 21.5336C144.218 21.5336 143.221 21.8532 142.429 22.4924C141.645 23.1316 141.061 23.9796 140.677 25.0364C140.302 26.0847 140.115 27.2353 140.115 28.4881C140.115 29.7495 140.302 30.9043 140.677 31.9526C141.061 33.0009 141.645 33.8404 142.429 34.4711C143.221 35.1018 144.218 35.4171 145.42 35.4171ZM158.827 38.2296V18.5933H162.522V21.7126H162.727C163.085 20.6557 163.715 19.8248 164.619 19.2197C165.531 18.606 166.562 18.2992 167.712 18.2992C167.951 18.2992 168.232 18.3077 168.556 18.3248C168.888 18.3418 169.148 18.3631 169.336 18.3887V22.045C169.183 22.0023 168.91 21.9555 168.518 21.9043C168.126 21.8447 167.734 21.8148 167.342 21.8148C166.438 21.8148 165.633 22.0066 164.925 22.3901C164.227 22.7651 163.673 23.2893 163.263 23.9626C162.854 24.6273 162.65 25.3859 162.65 26.2381V38.2296H158.827Z" fill="#07AC9E"/>
</svg>
